<?xml version="1.0" encoding="UTF-8" standalone="no"?><!DOCTYPE svg PUBLIC "-//W3C//DTD SVG 1.1//EN" "http://www.w3.org/Graphics/SVG/1.1/DTD/svg11.dtd"><svg width="100%" height="100%" viewBox="0 0 128 128" version="1.1" xmlns="http://www.w3.org/2000/svg" xmlns:xlink="http://www.w3.org/1999/xlink" xml:space="preserve" xmlns:serif="http://www.serif.com/" style="fill-rule:evenodd;clip-rule:evenodd;stroke-linecap:round;stroke-linejoin:round;stroke-miterlimit:1.5;"><path d="M126,16l-0,96c-0,7.727 -6.273,14 -14,14l-96,0c-7.727,0 -14,-6.273 -14,-14l0,-96c0,-7.727 6.273,-14 14,-14l96,0c7.727,0 14,6.273 14,14Z" style="fill:#363d52;stroke:#212532;stroke-width:4px;"/><g><path d="M27.351,120.444l0,-16.165l7.344,-0c1.755,-0 3.302,0.334 4.642,1.004c1.339,0.67 2.386,1.605 3.14,2.806c0.755,1.201 1.132,2.625 1.132,4.272c-0,1.632 -0.377,3.052 -1.132,4.261c-0.754,1.208 -1.801,2.147 -3.14,2.817c-1.34,0.67 -2.887,1.005 -4.642,1.005l-7.344,-0Zm3.741,-3.072l3.418,0c1.078,0 2.013,-0.204 2.806,-0.612c0.793,-0.408 1.409,-0.989 1.847,-1.743c0.439,-0.755 0.659,-1.64 0.659,-2.656c-0,-1.031 -0.22,-1.92 -0.659,-2.667c-0.438,-0.747 -1.054,-1.324 -1.847,-1.732c-0.793,-0.408 -1.728,-0.612 -2.806,-0.612l-3.418,-0l0,10.022Z" style="fill:#fff;fill-rule:nonzero;"/><path d="M49.867,110.791l7.782,-0l0,2.91l-7.782,-0l0,-2.91Zm0.277,6.651l8.799,-0l-0,3.002l-12.517,-0l0,-16.165l12.216,-0l0,3.002l-8.498,-0l0,10.161Z" style="fill:#fff;fill-rule:nonzero;"/><path d="M61.922,120.444l-0,-16.165l3.094,-0l6.882,11.408l-1.64,-0l6.767,-11.408l3.071,-0l0.046,16.165l-3.51,-0l-0.023,-10.785l0.646,0l-5.403,9.076l-1.686,-0l-5.519,-9.076l0.785,0l-0,10.785l-3.51,-0Z" style="fill:#fff;fill-rule:nonzero;"/><path d="M91.827,120.721c-1.278,-0 -2.459,-0.208 -3.545,-0.624c-1.085,-0.415 -2.024,-1 -2.817,-1.755c-0.793,-0.754 -1.409,-1.639 -1.847,-2.655c-0.439,-1.017 -0.659,-2.125 -0.659,-3.326c0,-1.201 0.22,-2.309 0.659,-3.325c0.438,-1.016 1.058,-1.902 1.859,-2.656c0.8,-0.754 1.739,-1.339 2.817,-1.755c1.078,-0.416 2.248,-0.624 3.51,-0.624c1.278,0 2.452,0.208 3.522,0.624c1.07,0.416 2.001,1.001 2.794,1.755c0.793,0.754 1.413,1.636 1.859,2.644c0.447,1.009 0.67,2.121 0.67,3.337c-0,1.201 -0.223,2.313 -0.67,3.337c-0.446,1.024 -1.066,1.909 -1.859,2.656c-0.793,0.746 -1.724,1.328 -2.794,1.743c-1.07,0.416 -2.236,0.624 -3.499,0.624Zm-0.023,-3.187c0.724,-0 1.39,-0.123 1.998,-0.369c0.608,-0.247 1.143,-0.601 1.605,-1.063c0.461,-0.462 0.819,-1.008 1.073,-1.639c0.254,-0.632 0.381,-1.332 0.381,-2.102c0,-0.77 -0.127,-1.47 -0.381,-2.101c-0.254,-0.632 -0.608,-1.178 -1.062,-1.64c-0.454,-0.462 -0.989,-0.816 -1.605,-1.062c-0.616,-0.247 -1.285,-0.37 -2.009,-0.37c-0.723,0 -1.389,0.123 -1.997,0.37c-0.609,0.246 -1.144,0.6 -1.605,1.062c-0.462,0.462 -0.82,1.008 -1.074,1.64c-0.254,0.631 -0.381,1.331 -0.381,2.101c-0,0.755 0.127,1.451 0.381,2.09c0.254,0.639 0.608,1.189 1.062,1.651c0.454,0.462 0.989,0.816 1.605,1.063c0.616,0.246 1.286,0.369 2.009,0.369Z" style="fill:#fff;fill-rule:nonzero;"/><path d="M35.495,14.687c-1.117,0 -2.036,0.919 -2.036,2.036l0,73.298c0,1.117 0.919,2.036 2.036,2.036l57.01,-0c1.117,-0 2.036,-0.919 2.036,-2.036l-0,-50.901l-16.289,-0c-4.467,-0 -8.144,-3.677 -8.144,-8.144l0,-16.289l-34.613,0Zm40.721,0l0,16.289c0,1.117 0.919,2.036 2.036,2.036l16.289,-0c-0.018,-0.515 -0.231,-1.004 -0.595,-1.369l-16.362,-16.361c-0.364,-0.364 -0.853,-0.577 -1.368,-0.595Zm-48.865,2.036c0,-4.467 3.677,-8.144 8.144,-8.144l40.648,0c2.159,0.001 4.231,0.86 5.758,2.386l16.361,16.362c1.527,1.526 2.386,3.599 2.387,5.758l-0,56.936c-0,4.468 -3.677,8.144 -8.144,8.144l-57.01,0c-4.467,0 -8.144,-3.676 -8.144,-8.144l0,-73.298Z" style="fill:#fff;"/><path d="M45.29,55.812c-0.248,0.265 -0.385,0.615 -0.385,0.978c-0,0.787 0.647,1.435 1.434,1.435c0.363,-0 0.713,-0.138 0.979,-0.385l6.16,-6.16l-0,28.103c-0,0.787 0.648,1.435 1.435,1.435c0.787,0 1.435,-0.648 1.435,-1.435l-0,-28.103l6.16,6.16c0.271,0.291 0.652,0.456 1.05,0.456c0.787,0 1.434,-0.647 1.434,-1.434c0,-0.398 -0.165,-0.779 -0.456,-1.05l-8.609,-8.609c-0.557,-0.556 -1.472,-0.556 -2.028,-0l-8.609,8.609Zm18.174,16.376c-0.291,-0.271 -0.456,-0.652 -0.456,-1.05c-0,-0.787 0.647,-1.434 1.434,-1.434c0.398,-0 0.779,0.165 1.05,0.456l6.16,6.16l0,-28.103c0,-0.787 0.648,-1.435 1.435,-1.435c0.787,-0 1.435,0.648 1.435,1.435l0,28.103l6.16,-6.16c0.266,-0.247 0.616,-0.385 0.979,-0.385c0.787,0 1.434,0.648 1.434,1.435c0,0.363 -0.137,0.713 -0.385,0.978l-8.609,8.609c-0.556,0.556 -1.471,0.556 -2.028,0l-8.609,-8.609Z" style="fill:#fff;fill-rule:nonzero;"/></g></svg>